<?xml version="1.0" encoding="UTF-8" standalone="no"?>
<!-- Generator: Adobe Illustrator 16.0.0, SVG Export Plug-In . SVG Version: 6.00 Build 0)  -->

<svg
   version="1.1"
   id="Layer_1"
   x="0px"
   y="0px"
   width="96.173378"
   height="89.452591"
   viewBox="0 0 96.173378 89.452591"
   enable-background="new 0 0 100 100"
   xml:space="preserve"
   sodipodi:docname="logo.svg"
   inkscape:version="1.3.2 (091e20e, 2023-11-25)"
   xmlns:inkscape="http://www.inkscape.org/namespaces/inkscape"
   xmlns:sodipodi="http://sodipodi.sourceforge.net/DTD/sodipodi-0.dtd"
   xmlns="http://www.w3.org/2000/svg"
   xmlns:svg="http://www.w3.org/2000/svg"><defs
   id="defs1" /><sodipodi:namedview
   id="namedview1"
   pagecolor="#ffffff"
   bordercolor="#000000"
   borderopacity="0.25"
   inkscape:showpageshadow="2"
   inkscape:pageopacity="0.0"
   inkscape:pagecheckerboard="0"
   inkscape:deskcolor="#d1d1d1"
   inkscape:zoom="7.97"
   inkscape:cx="48.619824"
   inkscape:cy="44.040151"
   inkscape:window-width="3384"
   inkscape:window-height="1387"
   inkscape:window-x="1080"
   inkscape:window-y="326"
   inkscape:window-maximized="1"
   inkscape:current-layer="Layer_1" />
<path
   fill="#2C3C46"
   d="M 95.236,19.651588 70.335,0.49958821 c -1.521,-1.17 -3.683,-0.156 -3.836,1.70499999 h -0.05 L 65.29,11.538588 H 25.483 c -3.467,0 -5.583,3.812 -3.747,6.753 l 23.201,42.232 H 34.192 c -3.338,-5.036 -9.055,-8.358 -15.549,-8.358 -10.294,0 -18.643,8.347 -18.643,18.643 0,10.295 8.348,18.644 18.643,18.644 6.332,0 11.922,-3.16 15.292,-7.985 h 37.679 c 3.49,0 5.619,-3.838 3.772,-6.801 l -23.35,-43.081 H 65.32 l 1.13,9.102 h 0.022 v 0.02 c 0,1.993 2.285,3.117 3.863,1.903 l 24.9,-19.152 c 1.251,-0.962 1.251,-2.847 0.001,-3.807 z"
   id="path1"
   style="fill:#000000" />
</svg>
