<?xml version="1.0" encoding="UTF-8" standalone="no"?>
<svg
   viewBox="0 0 75.989983 128"
   version="1.1"
   id="svg2"
   sodipodi:docname="battery.svg"
   width="75.989983"
   height="128"
   inkscape:version="1.3.2 (091e20e, 2023-11-25)"
   xmlns:inkscape="http://www.inkscape.org/namespaces/inkscape"
   xmlns:sodipodi="http://sodipodi.sourceforge.net/DTD/sodipodi-0.dtd"
   xmlns="http://www.w3.org/2000/svg"
   xmlns:svg="http://www.w3.org/2000/svg"
   xmlns:rdf="http://www.w3.org/1999/02/22-rdf-syntax-ns#"
   xmlns:cc="http://creativecommons.org/ns#"
   xmlns:dc="http://purl.org/dc/elements/1.1/">
  <sodipodi:namedview
     id="namedview2"
     pagecolor="#ffffff"
     bordercolor="#000000"
     borderopacity="0.25"
     inkscape:showpageshadow="2"
     inkscape:pageopacity="0.0"
     inkscape:pagecheckerboard="0"
     inkscape:deskcolor="#d1d1d1"
     inkscape:zoom="2.4583333"
     inkscape:cx="21.966102"
     inkscape:cy="64.271187"
     inkscape:window-width="1312"
     inkscape:window-height="449"
     inkscape:window-x="0"
     inkscape:window-y="38"
     inkscape:window-maximized="0"
     inkscape:current-layer="svg2" />
  <defs
     id="defs1">
    <style
       id="style1">.cls-1{fill:#343e48;}</style>
  </defs>
  <title
     id="title1">Battery_Icon</title>
  <g
     id="g2"
     style="fill:#ffffff">
    <path
       class="cls-1"
       d="M 53.07817,2.9265259 A 2.9232787,2.9232787 0 0 0 50.154892,0.0032472 H 26.018711 A 2.9232787,2.9232787 0 0 0 22.957686,2.9265259 V 10.716834 H 53.07817 Z"
       id="path1"
       style="stroke-width:1.53051;fill:#ffffff" />
    <path
       class="cls-1"
       d="M 73.051357,13.777859 H 2.9232789 A 2.9385838,2.9385838 0 0 0 2e-7,16.716443 V 128 H 75.989941 V 16.716443 A 2.9232787,2.9232787 0 0 0 73.051357,13.777859 Z M 52.037422,66.97847 31.589776,96.425528 h -0.122441 a 0.41323835,0.41323835 0 0 1 -0.183661,0 c -0.214272,-0.07653 -0.336713,-0.214271 -0.290798,-0.459153 L 35.431362,76.069713 H 24.396368 A 0.55098446,0.55098446 0 0 1 24.01374,75.824831 0.45915372,0.45915372 0 0 1 23.93721,75.396288 l 6.963832,-26.768662 c 0,-0.214272 0.244882,-0.244882 0.489764,-0.244882 h 20.187458 c 0.168356,0 0.336713,0 0.413238,0.07653 0.07653,0.07653 0.07653,0 0,0.153051 l -6.78017,11.830861 -2.846753,5.372098 h 9.183075 c 0.183661,0 0.352018,0.367323 0.428543,0.53568 a 0.7652562,0.7652562 0 0 1 0.06122,0.62751 z"
       id="path2"
       style="stroke-width:1.53051;fill:#ffffff" />
  </g>
  <metadata
     id="metadata2">
    <rdf:RDF>
      <cc:Work
         rdf:about="">
        <dc:title>Battery_Icon</dc:title>
      </cc:Work>
    </rdf:RDF>
  </metadata>
</svg>
