<?xml version="1.0" encoding="UTF-8" standalone="no"?>
<!-- Generator: Adobe Illustrator 16.0.4, SVG Export Plug-In . SVG Version: 6.00 Build 0)  -->

<svg
   version="1.1"
   id="Capa_1"
   x="0px"
   y="0px"
   width="186.27771"
   height="128"
   viewBox="0 0 186.27771 128"
   enable-background="new 0 0 395.889 395.887"
   xml:space="preserve"
   sodipodi:docname="solar.svg"
   inkscape:version="1.3.2 (091e20e, 2023-11-25)"
   xmlns:inkscape="http://www.inkscape.org/namespaces/inkscape"
   xmlns:sodipodi="http://sodipodi.sourceforge.net/DTD/sodipodi-0.dtd"
   xmlns="http://www.w3.org/2000/svg"
   xmlns:svg="http://www.w3.org/2000/svg"><defs
   id="defs8" /><sodipodi:namedview
   id="namedview8"
   pagecolor="#ffffff"
   bordercolor="#000000"
   borderopacity="0.25"
   inkscape:showpageshadow="2"
   inkscape:pageopacity="0.0"
   inkscape:pagecheckerboard="0"
   inkscape:deskcolor="#d1d1d1"
   showguides="true"
   inkscape:zoom="0.59612971"
   inkscape:cx="191.23355"
   inkscape:cy="140.90893"
   inkscape:window-width="1312"
   inkscape:window-height="449"
   inkscape:window-x="0"
   inkscape:window-y="38"
   inkscape:window-maximized="0"
   inkscape:current-layer="Capa_1" />

<g
   id="g8"
   transform="matrix(0.49018106,0,0,0.49018106,-3.7084228,-27.005482)"
   style="fill:#ffffff"><g
     id="g7"
     transform="matrix(0.99906979,0,0,0.99906979,0.0070374,0.05124774)"
     style="fill:#ffffff">
	<path
   d="m 8.952,222.959 c 8.216,-36.342 19.931,-68.646 29.715,-103.022 4.574,-16.07 8.877,-32.222 12.979,-48.419 2.825,-11.159 9.426,-16.406 21.099,-16.387 83.727,0.14 167.455,0.187 251.181,-0.038 13.594,-0.036 18.828,7.459 21.967,19.207 12.554,47.004 25.5,93.904 38.393,140.816 0.749,2.729 1.694,6.766 2.132,9.717 1.443,9.76 3.407,18.286 -2.416,26.25 -4.203,5.747 -9.792,7.643 -16.584,7.666 C 254.67,259.138 141.917,259.187 29.17,258.623 22.416,258.59 15.329,254.27 11.334,248 6.564,240.511 6.994,231.62 8.952,222.959 Z m 344.095,-7.873 c -0.771,-4.689 -0.991,-7.572 -1.732,-10.312 C 341.568,168.72 331.399,132.775 322.169,96.592 319.594,86.493 314.852,83.81 304.813,83.87 233.901,84.301 162.984,84.293 92.072,83.877 82.086,83.817 77.254,86.392 74.66,96.553 65.423,132.732 55.197,168.659 45.481,204.72 c -0.833,3.087 -0.652,6.445 -1.006,10.365 102.947,0.001 204.785,0.001 308.572,0.001 z"
   id="path1"
   style="fill:#ffffff" />
	<path
   d="m 126.534,316.462 c -2.718,-24.767 -2.563,-24.872 41.665,-28.953 0.618,-3.812 1.285,-7.928 2.079,-12.818 18.434,0 36.49,0 55.597,0 0.815,3.782 1.705,7.908 2.734,12.685 44.667,3.235 44.667,3.235 41.967,29.088 -47.832,-0.002 -95.413,-0.002 -144.042,-0.002 z"
   id="path2"
   style="fill:#ffffff" />
	<path
   d="m 321.978,200.51 c -20.896,0 -40.271,0 -61.124,0 -1.88,-13.558 -3.734,-26.947 -5.901,-42.585 17.769,0 34.672,-0.239 51.55,0.282 2.307,0.069 5.782,3.565 6.516,6.11 3.328,11.578 5.871,23.381 8.959,36.193 z"
   id="path3"
   style="fill:#ffffff" />
	<path
   d="m 141.669,157.848 c -2.108,15.327 -3.897,28.343 -5.792,42.113 -20.232,0 -39.609,0 -60.954,0 3.104,-12.824 5.712,-24.988 9.229,-36.886 0.676,-2.283 4.885,-4.922 7.532,-4.995 16.073,-0.464 32.167,-0.232 49.985,-0.232 z"
   id="path4"
   style="fill:#ffffff" />
	<path
   d="m 168.004,200.327 c 0.703,-14.979 1.313,-27.998 1.958,-41.736 19.438,0 37.37,0 56.935,0 0,14.008 0,27.423 0,41.736 -18.819,0 -37.737,0 -58.893,0 z"
   id="path5"
   style="fill:#ffffff" />
	<path
   d="m 225.166,133.549 c -18.729,0 -35.182,0 -53.351,0 0.695,-11.406 1.335,-21.924 2.033,-33.39 16.555,0 31.961,0 48.917,0 0.772,10.717 1.532,21.291 2.401,33.39 z"
   id="path6"
   style="fill:#ffffff" />
	<path
   d="m 252.115,133.115 c -1.274,-11.062 -2.488,-21.573 -3.902,-33.831 15.282,0 28.906,-0.369 42.479,0.31 2.732,0.138 6.653,3.772 7.629,6.618 2.832,8.254 4.446,16.928 6.897,26.903 -17.745,0 -34.455,0 -53.103,0 z"
   id="path7"
   style="fill:#ffffff" />
</g><path
     d="m 144.1868,134.04149 c 1.27281,-11.05171 2.48568,-21.55293 3.89837,-33.79953 -15.26779,0 -28.87912,-0.368654 -42.43949,0.30971 -2.72846,0.13788 -6.645812,3.7685 -7.621903,6.61185 -2.829366,8.24632 -4.440866,16.91225 -6.889586,26.87797 17.727499,0 34.421949,0 53.052609,0 z"
     id="path8"
     style="stroke-width:0.99907;fill:#ffffff" /></g>
</svg>
