# Blender 4.1.1
# www.blender.org
mtllib cloud.mtl
o Cloud
v 1.617123 -0.449969 -0.526436
v 1.087369 -0.993317 -0.666169
v 1.378792 0.138519 0.045876
v 1.208210 -1.163329 -0.014640
v 1.419645 -0.420513 0.392152
v 0.638852 -0.997378 0.347689
v 0.278804 -0.918917 -0.097405
v 0.500000 0.707107 0.500000
v 0.829412 0.021422 0.488667
v -0.325878 0.739981 0.639774
v -0.348093 0.037545 0.973114
v -0.441977 -0.812147 0.557386
v -0.584448 0.706537 -0.265639
v -1.000000 0.000000 -0.000000
v -0.475837 -0.483189 -0.636962
v 0.333308 -0.729382 -0.600649
v 0.649436 1.229979 -1.530015
v 1.087137 0.380382 -1.607321
v 1.006100 -0.469708 -0.948080
v 1.015973 1.234740 -0.488666
v 1.294588 0.137763 -0.589413
v 0.980237 0.270648 0.038859
v -0.413819 1.242899 -0.369179
v -0.763140 0.167646 -0.664048
v -0.091354 1.509548 -1.162107
v -0.124372 0.337275 -1.912733
v -0.098866 -0.469214 -1.530015
v 0.584613 -0.578387 0.517648
v 0.178825 1.013906 0.076193
vn 0.9295 -0.0778 -0.3605
vn 0.1761 -0.7878 -0.5902
vn 0.6750 0.6509 0.3474
vn 0.3968 -0.8946 0.2057
vn 0.6927 -0.0834 0.7164
vn -0.2525 -0.7277 0.6377
vn -0.2489 -0.9662 -0.0669
vn 0.5120 0.6329 0.5808
vn 0.4335 0.2476 0.8665
vn -0.3461 0.6814 0.6450
vn -0.2959 0.0665 0.9529
vn -0.4246 -0.7549 0.4998
vn -0.8504 0.4792 0.2174
vn -0.9942 -0.0583 0.0902
vn -0.6479 -0.6988 -0.3031
vn -0.1703 -0.9100 -0.3780
vn 0.4084 0.6613 -0.6292
vn 0.7191 -0.0386 -0.6938
vn 0.4459 -0.4727 -0.7601
vn 0.6491 0.7073 0.2801
vn 0.9283 0.3131 -0.2005
vn 0.6109 0.6500 0.4520
vn -0.6172 0.7244 0.3071
vn -0.9470 -0.0190 -0.3206
vn -0.3827 0.8752 -0.2958
vn -0.3999 -0.0515 -0.9151
vn -0.2968 -0.7145 -0.6336
vn 0.1596 -0.4178 0.8944
vn 0.0715 0.8700 0.4879
vt 0.575450 0.500000
vt 0.726948 0.481267
vt 0.636629 0.753007
vt 0.687500 0.250000
vt 0.388512 0.152024
vt 0.440308 0.750000
vt 0.616557 0.783772
vt 0.536072 0.894286
vt 0.375000 0.500000
vt 0.006187 0.296360
vt 0.062500 0.000000
vt 0.179591 0.250000
vt 0.176877 0.431687
vt 0.888378 0.365845
vt 0.937500 0.000000
vt 0.996294 0.298093
vt 0.812500 0.000000
vt 0.312500 0.000000
vt 0.397328 0.295806
vt 0.142198 0.250000
vt 0.312500 1.000000
vt 0.174510 0.750000
vt 0.375000 0.750000
vt 0.238114 0.734037
vt 0.000000 0.750000
vt 0.062500 1.000000
vt 0.854918 0.331153
vt 1.000000 0.250000
vt 0.935099 0.750751
vt 0.873027 0.505446
vt 1.000000 0.500000
vt 0.672900 0.253057
vt 0.825490 0.250000
vt 0.528643 0.226622
vt 0.687500 0.000000
vt 0.674510 0.750000
vt 0.625000 0.500000
vt 0.804204 0.500000
vt 0.464242 0.433657
vt 0.562500 1.000000
vt 0.437500 0.750000
vt 0.362928 0.467536
vt 0.233013 0.701832
vt 0.088679 0.750000
vt 0.092254 0.583777
vt 0.187500 1.000000
vt 0.195796 0.500000
vt 0.411781 0.515943
vt 0.317284 0.904210
vt 0.487479 0.594540
vt 0.463427 0.865004
vt 0.000000 0.500000
vt 0.847087 0.861650
vt 1.000000 0.750000
vt 0.009736 0.430739
s 1
f 1/1/1 19/2/19 21/3/21
f 2/4/2 1/1/1 4/5/4
f 3/6/3 21/7/21 22/8/22
f 3/6/3 5/9/5 1/1/1
f 7/10/7 4/11/4 6/12/6
f 6/12/6 28/13/28 7/10/7
f 16/14/16 4/15/4 7/16/7
f 16/14/16 2/4/2 4/17/4
f 7/18/7 28/19/28 12/20/12
f 29/21/29 10/22/10 8/23/8
f 9/24/9 28/13/28 5/9/5 3/6/3
f 13/25/13 10/22/10 29/26/29
f 15/27/15 7/15/7 12/28/12
f 13/29/13 24/30/24 14/31/14
f 15/27/15 16/32/16 7/17/7
f 27/33/27 19/34/19 16/35/16
f 17/36/17 18/37/18 26/38/26
f 21/39/21 19/34/19 18/37/18
f 17/36/17 25/40/25 20/41/20
f 20/41/20 22/42/22 21/39/21
f 20/41/20 29/43/29 22/42/22
f 25/21/25 29/43/29 20/41/20
f 29/43/29 23/44/23 13/45/13
f 23/44/23 29/43/29 25/46/25
f 27/33/27 16/15/16 15/28/15
f 1/1/1 2/4/2 19/2/19
f 21/7/21 3/6/3 1/1/1
f 1/1/1 5/9/5 4/5/4
f 6/12/6 4/5/4 5/9/5 28/13/28
f 11/47/11 9/48/9 8/23/8 10/22/10
f 9/24/9 3/6/3 22/49/22
f 2/4/2 16/14/16 19/2/19
f 22/50/22 29/51/29 8/23/8
f 9/48/9 22/50/22 8/23/8
f 12/20/12 28/19/28 9/48/9 11/47/11
f 14/52/14 11/47/11 10/22/10 13/25/13
f 15/27/15 12/28/12 14/31/14 24/30/24
f 12/20/12 11/47/11 14/52/14
f 19/34/19 27/33/27 26/38/26 18/37/18
f 21/39/21 18/37/18 17/36/17 20/41/20
f 25/53/25 26/38/26 24/31/24 23/54/23
f 23/44/23 24/55/24 13/45/13
f 27/33/27 15/28/15 24/31/24 26/38/26
f 25/53/25 17/36/17 26/38/26
