<?xml version="1.0" encoding="UTF-8" standalone="no"?>
<!-- Created with Inkscape (http://www.inkscape.org/) -->

<svg
   width="338.66666mm"
   height="190.5mm"
   viewBox="0 0 338.66665 190.5"
   version="1.1"
   id="svg1"
   inkscape:version="1.3.2 (091e20e, 2023-11-25)"
   sodipodi:docname="splash.svg"
   inkscape:export-filename="splash.png"
   inkscape:export-xdpi="96"
   inkscape:export-ydpi="96"
   xmlns:inkscape="http://www.inkscape.org/namespaces/inkscape"
   xmlns:sodipodi="http://sodipodi.sourceforge.net/DTD/sodipodi-0.dtd"
   xmlns="http://www.w3.org/2000/svg"
   xmlns:svg="http://www.w3.org/2000/svg">
  <sodipodi:namedview
     id="namedview1"
     pagecolor="#ffffff"
     bordercolor="#000000"
     borderopacity="0.25"
     inkscape:showpageshadow="2"
     inkscape:pageopacity="0.0"
     inkscape:pagecheckerboard="0"
     inkscape:deskcolor="#d1d1d1"
     inkscape:document-units="mm"
     inkscape:zoom="0.92737795"
     inkscape:cx="206.49618"
     inkscape:cy="190.32154"
     inkscape:window-width="1080"
     inkscape:window-height="1212"
     inkscape:window-x="2357"
     inkscape:window-y="377"
     inkscape:window-maximized="0"
     inkscape:current-layer="layer1" />
  <defs
     id="defs1" />
  <g
     inkscape:label="Layer 1"
     inkscape:groupmode="layer"
     id="layer1"
     transform="translate(-50.498562,-98.144089)">
    <rect
       style="fill:#ffffff;stroke-width:0.264583"
       id="rect1"
       width="338.66666"
       height="190.5"
       x="50.498562"
       y="98.144089" />
    <path
       fill-rule="evenodd"
       clip-rule="evenodd"
       d="m 197.82882,196.97356 h 1.44574 l 1.81861,-5.04636 h -1.56414 l -0.97281,3.14618 -0.97304,-3.14618 h -1.56379 z m 4.87381,-2.52296 c 0,0.59256 0.48054,1.07445 1.07381,1.07445 0.56164,0 1.02333,-0.43186 1.06971,-0.98272 v -0.18452 c -0.0464,-0.54964 -0.50797,-0.98126 -1.06971,-0.98126 -0.59327,0 -1.07381,0.48067 -1.07381,1.07405 z m 1.07381,-2.51011 c 0.39029,0 0.7587,0.089 1.08845,0.24746 0.0465,-0.14427 0.18269,-0.24746 0.34147,-0.24746 h 1.0796 v 5.02013 h -1.0796 c -0.15878,0 -0.29496,-0.10355 -0.34147,-0.24807 -0.32975,0.15915 -0.69816,0.24807 -1.08845,0.24807 -1.38628,0 -2.51036,-1.12384 -2.51036,-2.51002 0,-1.38615 1.12408,-2.51011 2.51036,-2.51011 z m 21.96889,2.44354 c 0.0474,-0.55134 0.50747,-0.98271 1.06865,-0.98271 0.59452,0 1.07632,0.48164 1.07632,1.07442 0,0.5934 -0.48207,1.07407 -1.07632,1.07407 -0.56118,0 -1.02129,-0.43161 -1.06865,-0.9815 z m -0.0183,2.35426 c 0.32861,0.15841 0.69744,0.24734 1.08691,0.24734 1.38853,0 2.51089,-1.12385 2.51089,-2.50989 0,-1.38629 -1.12236,-2.51012 -2.51089,-2.51012 -0.38127,0 -0.74401,0.0857 -1.06865,0.23924 v -2.41201 h -1.43907 v 7.19278 h 1.0787 c 0.16087,0 0.29422,-0.10319 0.34211,-0.24734 z m 9.00113,-2.16998 c 0.0474,0.54989 0.50773,0.9815 1.06865,0.9815 0.59425,0 1.07659,-0.4808 1.07659,-1.07381 0,-0.59304 -0.48234,-1.07468 -1.07659,-1.07468 -0.56092,0 -1.02129,0.43137 -1.06865,0.98247 z m -1.47215,-0.0918 c 0,-1.14911 0.8255,-2.5024 2.54477,-2.5024 1.71899,0 2.54449,1.35329 2.54449,2.51073 0,1.15732 -0.8255,2.5105 -2.54449,2.5105 -1.71927,0 -2.54477,-1.35318 -2.54477,-2.5105 z m -16.9501,-0.0925 c -0.0471,-0.55134 -0.5075,-0.98271 -1.0685,-0.98271 -0.59462,0 -1.07661,0.48164 -1.07661,1.07442 0,0.5934 0.48199,1.07407 1.07661,1.07407 0.56089,0 1.02137,-0.43161 1.0685,-0.9815 z m 0.0184,2.35426 c -0.32877,0.15841 -0.69755,0.24734 -1.08686,0.24734 -1.38848,0 -2.51087,-1.12385 -2.51087,-2.50989 0,-1.38629 1.12239,-2.51012 2.51087,-2.51012 0.38132,0 0.74406,0.0857 1.0685,0.23924 v -2.41201 h 1.4392 v 7.19278 h -1.07876 c -0.16071,0 -0.29435,-0.10319 -0.34208,-0.24734 z m 16.34543,-4.8084 c 0.0116,8.3e-4 0.0236,0.002 0.0354,0.002 v 1.43618 c -0.0275,-0.002 -0.055,-0.004 -0.0831,-0.004 -0.55747,0 -1.06733,0.35933 -1.06733,0.87902 v 2.73016 h -1.44039 v -5.04538 h 1.07871 c 0.1606,0 0.29448,0.10331 0.3421,0.24758 0.32862,-0.15817 0.69771,-0.24758 1.08691,-0.24758 0.0161,0 0.0317,0.001 0.0476,0.002 z m 8.71855,1.43386 c 0.72919,0 0.79877,0.5789 0.79877,0.87915 v 2.75241 h 1.45733 v -3.04625 c 0,-0.55679 -0.11959,-1.5969 -1.14962,-1.90466 -0.43365,-0.13654 -0.85486,-0.11648 -0.85486,-0.11648 -0.38974,0 -0.7583,0.0891 -1.08691,0.24722 -0.0479,-0.14403 -0.18151,-0.24722 -0.34211,-0.24722 h -1.07897 v 5.06739 h 1.45759 v -2.75241 c 0,-0.57732 0.29977,-0.87915 0.79878,-0.87915 z m -30.95096,0.87915 c 0,-0.30025 -0.0695,-0.87915 -0.7988,-0.87915 -0.49903,0 -0.7987,0.30183 -0.7987,0.87915 v 2.75241 h -1.45743 v -5.06739 h 1.07852 c 0.16094,0 0.29459,0.10319 0.34218,0.24722 0.32891,-0.15817 0.69755,-0.24722 1.08699,-0.24722 0,0 0.42146,-0.0201 0.85524,0.11648 1.02997,0.30776 1.14935,1.34787 1.14935,1.90466 v 3.04625 h -1.45735 z m 11.52903,-0.28178 h -1.85475 c -0.0396,-10e-4 -0.18704,-0.0187 -0.11068,-0.21664 0.17725,-0.39645 0.5737,-0.67326 1.03637,-0.67326 0.47448,0 0.88059,0.2912 1.05037,0.70467 0.0498,0.16846 -0.0837,0.18428 -0.12131,0.18523 m 0.86776,-1.2913 c -0.44522,-0.47076 -1.07003,-0.75338 -1.79779,-0.75338 -1.44683,0 -2.49129,1.22426 -2.49129,2.55133 0,1.41214 1.15575,2.51667 2.5169,2.51667 0.48792,0 0.9589,-0.14537 1.35271,-0.42789 0.40227,-0.27416 0.73617,-0.68474 0.96742,-1.21578 h -1.45534 c -0.17121,0.24817 -0.41095,0.44537 -0.86479,0.44537 -0.55618,0 -1.03587,-0.3342 -1.09556,-0.83929 h 3.53555 c 0.11138,-0.87299 -0.0685,-1.6347 -0.66781,-2.27703"
       fill="#ffffff"
       id="path1"
       style="fill:#000000;stroke-width:0.264583" />
  </g>
</svg>
